<svg version="1.1" xmlns="http://www.w3.org/2000/svg" xmlns:xlink="http://www.w3.org/1999/xlink" preserveAspectRatio="xMidYMid meet" viewBox="521 220 216 162"><g data-item-type="text" data-item="Business" id="logo__item--business" class="logo__item">
                <g class="logo__item__inner" transform="translate(523.25 373.83504609214) scale(1 1) rotate(0 0 0)">
                    <text data-part-id="logo__item--business" dy="0" dominant-baseline="auto" alignment-baseline="auto" font-family="Montserrat" font-size="32px" fill="#00A69C" letter-spacing="0" font-weight="bold" font-style="normal" data-font-family="Montserrat" data-font-weight="bold" data-font-style="normal" data-ttf-url="/builder_assets/fontsttf/font-montserrat-bold-normal.ttf">CompuShop</text>
                </g>
            </g><g data-item-type="image" data-item="Image" data-logo-item="" id="logo__item--logo_0" class="logo__item">
    <g class="logo__item__inner" transform="translate(575.3876684135884 211) scale(1.45225696368028 1.45225696368028) rotate(0 0 0)">
        
<g>
	<radialGradient id="SVGID_1_" cx="33.5723" cy="16.417" r="116.5627" gradientUnits="userSpaceOnUse">
		<stop offset="0" style="stop-color:#00A69C"></stop>
		<stop offset="1" style="stop-color:#00423D"></stop>
	</radialGradient>
	<path fill="url(#SVGID_1_)" d="M40.085,78.761c-0.204,2.489-2.379,4.343-4.869,4.139c-2.49-0.196-4.343-2.38-4.147-4.869   c0.204-2.481,2.388-4.336,4.87-4.131C38.428,74.088,40.289,76.264,40.085,78.761z" data-part-id="logo__item--logo_0__0"></path>
	<g>
		<path fill="#231F20" d="M41.2,20.289H29.216c-0.55,0-0.99-0.432-0.99-0.974s0.439-0.982,0.99-0.982H41.2    c0.534,0,0.981,0.44,0.981,0.982S41.734,20.289,41.2,20.289z" data-part-id="logo__item--logo_0__1"></path>
	</g>
	<g>
		<radialGradient id="SVGID_2_" cx="25.5679" cy="16.4727" r="42.2311" gradientUnits="userSpaceOnUse">
			<stop offset="0" style="stop-color:#929497"></stop>
			<stop offset="0.6727" style="stop-color:#404041"></stop>
			<stop offset="1" style="stop-color:#231F20"></stop>
		</radialGradient>
		<path fill="url(#SVGID_2_)" d="M14.246,67.859V25.464c0-9.942,8.167-11.121,9.425-11.238h17.553c1.484,0,2.694-1.21,2.694-2.694    c0-1.493-1.209-2.694-2.694-2.694H23.553c-0.063,0-0.125,0-0.188,0C18.346,9.199,8.867,13.134,8.867,25.464v50.004    C10.068,73.263,11.804,70.757,14.246,67.859z" data-part-id="logo__item--logo_0__2"></path>
		<radialGradient id="SVGID_3_" cx="25.5684" cy="16.4722" r="42.225" gradientUnits="userSpaceOnUse">
			<stop offset="0" style="stop-color:#929497"></stop>
			<stop offset="0.6727" style="stop-color:#404041"></stop>
			<stop offset="1" style="stop-color:#231F20"></stop>
		</radialGradient>
		<path fill="url(#SVGID_3_)" d="M31.053,14.226h16.815c1.312,0.117,9.424,1.327,9.424,11.238v10.343    c1.736-1.271,3.527-2.568,5.381-3.903v-6.44c0-12.331-9.487-16.265-14.498-16.626c-0.063,0-0.126,0-0.188,0H31.053    c-1.484,0-2.686,1.201-2.686,2.694C28.367,13.016,29.569,14.226,31.053,14.226z" data-part-id="logo__item--logo_0__3"></path>
	</g>
	<radialGradient id="SVGID_4_" cx="33.5742" cy="22.5015" r="108.4297" gradientUnits="userSpaceOnUse">
		<stop offset="0" style="stop-color:#00A69C"></stop>
		<stop offset="1" style="stop-color:#00423D"></stop>
	</radialGradient>
	<path fill="url(#SVGID_4_)" d="M62.531,38.297c-1.791,1.517-3.526,3.119-5.239,4.722v38.805c-0.077,0.62-0.824,4.249-8.427,4.249   c-0.251,0-0.495-0.008-0.754-0.008c-0.031,0-0.063,0-0.086,0H25.933c-2.026,1.469-4.061,2.938-6.063,4.445   c-0.173,0.133-0.345,0.274-0.51,0.408c0.439,0.322,0.99,0.526,1.579,0.526h27.049c0.29,0.008,0.581,0.008,0.855,0.008   c13.352,0,13.831-9.33,13.831-9.433c0-0.031,0-0.063,0-0.087V38.188C62.625,38.227,62.578,38.259,62.531,38.297z" data-part-id="logo__item--logo_0__4"></path>
	<g>
		
		<mask maskUnits="userSpaceOnUse" x="57.292" y="38.188" width="5.381" height="8.568" id="SVGID_5_">
			<g filter="url(#Adobe_OpacityMaskFilter)">
				<defs>
					<filter id="Adobe_OpacityMaskFilter_1_" filterUnits="userSpaceOnUse" x="57.292" y="38.188" width="5.381" height="8.568">
						<feFlood style="flood-color:white;flood-opacity:1" result="back"></feFlood>
						<feBlend in="SourceGraphic" in2="back" mode="normal"></feBlend>
					</filter>
				</defs>
				<mask maskUnits="userSpaceOnUse" x="57.292" y="38.188" width="5.381" height="8.568" id="SVGID_5_">
					<g filter="url(#Adobe_OpacityMaskFilter_1_)">
					</g>
				</mask>
				<linearGradient id="SVGID_6_" gradientUnits="userSpaceOnUse" x1="59.6201" y1="41.2192" x2="60.9622" y2="45.8609">
					<stop offset="0" style="stop-color:#FFFFFF"></stop>
					<stop offset="0.0524" style="stop-color:#E8E8E8"></stop>
					<stop offset="0.2031" style="stop-color:#ABABAB"></stop>
					<stop offset="0.3529" style="stop-color:#777777"></stop>
					<stop offset="0.4983" style="stop-color:#4C4C4C"></stop>
					<stop offset="0.6383" style="stop-color:#2B2B2B"></stop>
					<stop offset="0.7716" style="stop-color:#131313"></stop>
					<stop offset="0.8952" style="stop-color:#050505"></stop>
					<stop offset="1" style="stop-color:#000000"></stop>
				</linearGradient>
				<path mask="url(#SVGID_5_)" fill="url(#SVGID_6_)" d="M62.673,38.188c-0.048,0.038-0.095,0.07-0.142,0.108      c-1.791,1.517-3.526,3.119-5.239,4.722v3.738c1.729-1.288,3.511-2.607,5.381-3.959V38.188z" data-part-id="logo__item--logo_0__5"></path>
			</g>
		</mask>
		<linearGradient id="SVGID_7_" gradientUnits="userSpaceOnUse" x1="59.6201" y1="41.2192" x2="60.9622" y2="45.8609">
			<stop offset="0" style="stop-color:#231F20"></stop>
			<stop offset="1" style="stop-color:#231F20"></stop>
		</linearGradient>
		<path fill="url(#SVGID_7_)" d="M62.673,38.188c-0.048,0.038-0.095,0.07-0.142,0.108c-1.791,1.517-3.526,3.119-5.239,4.722v3.738    c1.729-1.288,3.511-2.607,5.381-3.959V38.188z" data-part-id="logo__item--logo_0__6"></path>
		<defs>
			<filter id="Adobe_OpacityMaskFilter_2_" filterUnits="userSpaceOnUse" x="19.359" y="79.239" width="43.292" height="12.213">
				<feFlood style="flood-color:white;flood-opacity:1" result="back"></feFlood>
				<feBlend in="SourceGraphic" in2="back" mode="normal"></feBlend>
			</filter>
		</defs>
		<mask maskUnits="userSpaceOnUse" x="19.359" y="79.239" width="43.292" height="12.213" id="SVGID_8_">
			<g filter="url(#Adobe_OpacityMaskFilter_2_)">
				<defs>
					<filter id="Adobe_OpacityMaskFilter_3_" filterUnits="userSpaceOnUse" x="19.359" y="79.239" width="43.292" height="12.213">
						<feFlood style="flood-color:white;flood-opacity:1" result="back"></feFlood>
						<feBlend in="SourceGraphic" in2="back" mode="normal"></feBlend>
					</filter>
				</defs>
				<mask maskUnits="userSpaceOnUse" x="19.359" y="79.239" width="43.292" height="12.213" id="SVGID_8_">
					<g filter="url(#Adobe_OpacityMaskFilter_3_)">
					</g>
				</mask>
				<linearGradient id="SVGID_9_" gradientUnits="userSpaceOnUse" x1="29.1567" y1="45.2607" x2="30.4974" y2="49.8976">
					<stop offset="0" style="stop-color:#FFFFFF"></stop>
					<stop offset="0.0524" style="stop-color:#E8E8E8"></stop>
					<stop offset="0.2031" style="stop-color:#ABABAB"></stop>
					<stop offset="0.3529" style="stop-color:#777777"></stop>
					<stop offset="0.4983" style="stop-color:#4C4C4C"></stop>
					<stop offset="0.6383" style="stop-color:#2B2B2B"></stop>
					<stop offset="0.7716" style="stop-color:#131313"></stop>
					<stop offset="0.8952" style="stop-color:#050505"></stop>
					<stop offset="1" style="stop-color:#000000"></stop>
				</linearGradient>
				<path mask="url(#SVGID_8_)" fill="url(#SVGID_9_)" d="M48.002,91.444c0.376,0.008,0.754,0.008,1.115,0.008      c0.126,0,0.244-0.008,0.362-0.016c0.314,0,0.628-0.017,0.926-0.039c0.047,0,0.11,0,0.158,0      c11.654-0.786,12.078-9.283,12.087-9.378c0.046-1.477-1.116-2.732-2.601-2.78c-0.031,0-0.063,0-0.094,0      c-1.39,0-2.529,1.06-2.663,2.442v0.142c-0.069,0.597-0.776,3.974-7.594,4.233c-0.016,0-0.047,0-0.07,0.008      c-0.181,0-0.369,0-0.558,0.008c-0.322,0-0.644,0-0.989-0.008c-0.016,0-0.047,0-0.079,0H25.933      c-2.026,1.469-4.061,2.938-6.063,4.445c-0.173,0.133-0.345,0.274-0.51,0.408c0.439,0.322,0.99,0.526,1.579,0.526h0.078H47.97      h0.016C47.994,91.444,48.002,91.444,48.002,91.444z" data-part-id="logo__item--logo_0__7"></path>
			</g>
		</mask>
		<linearGradient id="SVGID_10_" gradientUnits="userSpaceOnUse" x1="29.1567" y1="45.2607" x2="30.4974" y2="49.8976">
			<stop offset="0" style="stop-color:#231F20"></stop>
			<stop offset="1" style="stop-color:#231F20"></stop>
		</linearGradient>
		<path fill="url(#SVGID_10_)" d="M48.002,91.444c0.376,0.008,0.754,0.008,1.115,0.008c0.126,0,0.244-0.008,0.362-0.016    c0.314,0,0.628-0.017,0.926-0.039c0.047,0,0.11,0,0.158,0c11.654-0.786,12.078-9.283,12.087-9.378    c0.046-1.477-1.116-2.732-2.601-2.78c-0.031,0-0.063,0-0.094,0c-1.39,0-2.529,1.06-2.663,2.442v0.142    c-0.069,0.597-0.776,3.974-7.594,4.233c-0.016,0-0.047,0-0.07,0.008c-0.181,0-0.369,0-0.558,0.008c-0.322,0-0.644,0-0.989-0.008    c-0.016,0-0.047,0-0.079,0H25.933c-2.026,1.469-4.061,2.938-6.063,4.445c-0.173,0.133-0.345,0.274-0.51,0.408    c0.439,0.322,0.99,0.526,1.579,0.526h0.078H47.97h0.016C47.994,91.444,48.002,91.444,48.002,91.444z" data-part-id="logo__item--logo_0__8"></path>
	</g>
	<g>
		<radialGradient id="SVGID_11_" cx="33.5718" cy="21.4849" r="110.7978" gradientUnits="userSpaceOnUse">
			<stop offset="0" style="stop-color:#00A69C"></stop>
			<stop offset="1" style="stop-color:#00423D"></stop>
		</radialGradient>
		<path fill="url(#SVGID_11_)" d="M19.932,91.468c-2.678,0-8.812-0.55-10.603-5.553c-2.309-6.424,1.806-15.245,63.867-58.652    c1.209-0.855,2.883-0.557,3.738,0.652c0.849,1.225,0.559,2.898-0.659,3.755C13.618,75.509,13.728,82.24,14.395,84.102    c0.628,1.767,4.594,2.088,6.323,1.963c0.063,0,0.125,0,0.196,0h27.088c0.031,0,0.063,0,0.079,0    c8.82,0.275,9.188-4.179,9.188-4.226c0.048-1.453,1.241-2.6,2.687-2.6c0.031,0,0.063,0,0.094,0    c1.484,0.048,2.646,1.304,2.601,2.78c-0.009,0.103-0.487,9.816-14.679,9.425H21.016C20.796,91.452,20.419,91.468,19.932,91.468z" data-part-id="logo__item--logo_0__9"></path>
	</g>
	<radialGradient id="SVGID_12_" cx="75.9854" cy="26.3892" r="62.9995" gradientUnits="userSpaceOnUse">
		<stop offset="0" style="stop-color:#00A69C"></stop>
		<stop offset="1" style="stop-color:#00423D"></stop>
	</radialGradient>
	<rect x="70.684" y="39.429" fill="url(#SVGID_12_)" width="6.738" height="6.738" data-part-id="logo__item--logo_0__10"></rect>
	<radialGradient id="SVGID_13_" cx="71.7148" cy="8.8057" r="51.9142" gradientUnits="userSpaceOnUse">
		<stop offset="0" style="stop-color:#00A69C"></stop>
		<stop offset="1" style="stop-color:#00423D"></stop>
	</radialGradient>
	<rect x="67.353" y="19.551" fill="url(#SVGID_13_)" width="5.545" height="5.553" data-part-id="logo__item--logo_0__11"></rect>
	<radialGradient id="SVGID_14_" cx="84.5391" cy="3.334" r="68.2172" gradientUnits="userSpaceOnUse">
		<stop offset="0" style="stop-color:#00A69C"></stop>
		<stop offset="1" style="stop-color:#00423D"></stop>
	</radialGradient>
	<rect x="78.804" y="17.454" fill="url(#SVGID_14_)" width="7.289" height="7.296" data-part-id="logo__item--logo_0__12"></rect>
	<rect x="81.059" y="29.643" fill="#231F20" width="5.034" height="5.042" data-part-id="logo__item--logo_0__13"></rect>
	<rect x="86.093" y="8.838" fill="#231F20" width="5.042" height="5.034" data-part-id="logo__item--logo_0__14"></rect>
</g>

    </g>
</g></svg>